<?xml version="1.0" standalone="no"?>
<!DOCTYPE svg PUBLIC "-//W3C//DTD SVG 20010904//EN"
 "http://www.w3.org/TR/2001/REC-SVG-20010904/DTD/svg10.dtd">
<svg version="1.0" xmlns="http://www.w3.org/2000/svg"
 width="780.000000pt" height="277.000000pt" viewBox="0 0 780.000000 277.000000"
 preserveAspectRatio="xMidYMid meet">

<g transform="translate(0.000000,277.000000) scale(0.100000,-0.100000)"
fill="#000000" stroke="none">
<path d="M1370 2545 c0 -124 -2 -225 -4 -225 -2 0 -23 7 -46 15 -23 8 -44 15
-46 15 -2 0 -4 -7 -4 -15 0 -13 -25 -15 -164 -15 -90 0 -171 -3 -180 -6 -14
-5 -16 -55 -16 -456 l0 -450 -22 6 c-64 18 -78 19 -78 2 0 -14 -37 -16 -400
-16 -260 0 -400 -3 -400 -10 0 -6 140 -10 400 -10 363 0 400 -2 400 -16 0 -17
14 -16 77 2 l23 6 2 -453 3 -454 178 -3 c148 -2 177 -5 177 -17 0 -18 -2 -18
50 0 23 8 44 15 46 15 2 0 4 -101 4 -225 l0 -225 695 0 695 0 0 225 0 225 458
2 457 3 3 293 c2 250 4 292 17 292 19 0 19 7 1 58 l-15 41 32 7 c89 19 157 83
183 172 l15 52 165 0 c145 0 164 -2 164 -16 0 -17 14 -16 77 2 l23 6 2 -223 3
-224 695 0 695 0 3 228 2 227 165 0 c146 0 165 -2 165 -16 0 -17 14 -16 77 2
l23 6 2 -223 3 -224 693 -3 692 -2 0 230 0 230 110 0 c67 0 110 4 110 10 0 6
-43 10 -110 10 l-110 0 0 230 0 230 -692 -2 -693 -3 -3 -224 -2 -223 -23 6
c-63 18 -77 19 -77 2 0 -14 -19 -16 -165 -16 l-165 0 -2 228 -3 227 -695 0
-695 0 -3 -224 -2 -223 -23 6 c-64 18 -77 19 -77 2 0 -15 -17 -16 -166 -14
l-167 3 -12 47 c-21 83 -97 155 -182 173 l-32 6 15 41 c18 51 18 58 -1 58 -13
0 -15 38 -15 283 0 207 -3 286 -12 295 -9 9 -125 12 -460 12 l-448 0 0 225 0
225 -695 0 -695 0 0 -225z m1370 -240 l0 -445 -675 0 -675 0 0 445 0 445 675
0 675 0 0 -445z m-1470 -30 c0 -19 7 -19 59 0 l41 14 0 -224 0 -225 695 0 695
0 0 225 0 225 450 0 450 0 0 -279 c0 -270 -1 -279 -20 -284 -19 -5 -19 -7 -5
-48 8 -23 14 -43 13 -44 -2 -1 -26 -10 -53 -19 -59 -19 -120 -74 -146 -131
-59 -128 20 -292 158 -327 24 -6 43 -12 43 -13 0 -1 -7 -21 -15 -45 -14 -40
-14 -42 5 -47 19 -5 20 -14 20 -284 l0 -279 -450 0 -450 0 0 225 0 225 -695 0
-695 0 0 -225 c0 -124 -2 -225 -4 -225 -2 0 -23 7 -46 15 -52 18 -50 18 -50 0
0 -13 -26 -15 -170 -15 l-170 0 0 900 0 900 170 0 c144 0 170 -2 170 -15z
m4440 -885 l0 -450 -675 0 -675 0 0 443 c0 244 3 447 7 450 3 4 307 7 675 7
l668 0 0 -450z m1830 0 l0 -450 -675 0 -675 0 0 450 0 450 675 0 675 0 0 -450z
m-3772 191 c73 -38 112 -104 112 -191 0 -127 -87 -214 -215 -215 -115 0 -203
83 -213 201 -4 44 1 64 23 109 54 112 181 153 293 96z m-1028 -1106 l0 -445
-675 0 -675 0 0 445 0 445 675 0 675 0 0 -445z"/>
<path d="M2517 2533 c-11 -11 -8 -281 3 -288 6 -4 10 47 10 144 0 83 -1 151
-3 151 -2 0 -7 -3 -10 -7z"/>
<path d="M1600 2384 c0 -94 4 -143 10 -139 6 4 10 63 10 146 0 86 -4 139 -10
139 -6 0 -10 -55 -10 -146z"/>
<path d="M1858 2463 c8 -3 12 -29 12 -78 0 -49 -4 -75 -12 -78 -7 -3 12 -6 43
-6 70 -1 99 24 99 85 0 59 -30 84 -101 83 -30 0 -48 -3 -41 -6z m104 -20 c23
-21 24 -89 1 -115 -9 -10 -29 -18 -45 -18 l-28 0 0 75 c0 75 0 75 27 75 14 0
35 -7 45 -17z"/>
<path d="M2028 2463 c8 -3 12 -29 12 -78 0 -49 -4 -75 -12 -78 -7 -3 3 -5 22
-5 19 0 29 2 23 5 -7 2 -13 20 -13 39 0 32 2 34 33 34 38 0 57 15 57 45 0 34
-20 45 -79 44 -31 0 -50 -3 -43 -6z m97 -38 c0 -27 -4 -30 -32 -33 -32 -3 -33
-2 -33 33 0 35 1 36 33 33 28 -3 32 -6 32 -33z"/>
<path d="M2188 2463 c8 -3 12 -29 12 -78 0 -49 -4 -75 -12 -78 -7 -3 3 -5 22
-5 19 0 29 2 23 5 -19 7 -17 73 2 73 7 0 19 -8 24 -17 8 -14 10 -10 10 22 -1
22 -3 32 -6 23 -2 -10 -13 -18 -24 -18 -15 0 -19 7 -19 36 0 35 1 35 37 32 30
-2 39 -8 44 -28 6 -23 7 -22 8 8 l1 32 -67 -1 c-38 0 -62 -3 -55 -6z"/>
<path d="M5062 1604 c-36 -25 -43 -57 -51 -220 -7 -158 -18 -197 -48 -173 -10
9 -17 9 -24 2 -15 -15 6 -26 36 -19 44 11 58 57 62 206 3 74 9 150 15 168 9
30 13 33 39 27 30 -7 41 8 13 19 -20 8 -16 9 -42 -10z"/>
<path d="M6421 1448 c1 -17 2 -19 6 -5 2 9 13 17 24 17 17 0 19 -7 19 -59 0
-38 -4 -61 -12 -64 -7 -3 5 -5 27 -5 22 0 32 2 23 5 -15 4 -18 16 -18 64 0 53
2 59 20 59 12 0 24 -10 30 -22 8 -22 9 -22 9 5 1 27 0 27 -64 27 -61 0 -65 -1
-64 -22z"/>
<path d="M6575 1400 c0 -56 3 -70 15 -70 12 0 15 9 12 41 -4 36 -2 40 14 37
23 -4 32 -57 12 -69 -8 -5 6 -9 37 -9 l51 0 -4 42 c-4 35 -2 40 12 35 9 -4 16
-2 16 3 0 6 -17 10 -37 9 -21 0 -32 -3 -25 -6 6 -2 12 -20 12 -39 0 -27 -4
-34 -19 -34 -16 0 -20 8 -23 38 -2 30 -7 38 -25 40 -17 3 -23 10 -23 28 0 13
-6 24 -12 24 -9 0 -13 -21 -13 -70z"/>
<path d="M6925 1400 c0 -56 3 -70 15 -70 12 0 15 9 12 41 -4 36 -2 40 14 37
23 -4 32 -57 12 -69 -9 -6 -3 -9 17 -9 17 0 25 4 18 8 -6 4 -13 23 -15 42 -2
27 -8 36 -25 38 -17 3 -23 10 -23 28 0 13 -6 24 -12 24 -9 0 -13 -21 -13 -70z"/>
<path d="M7145 1400 c0 -56 3 -70 15 -70 12 0 14 13 12 70 -5 96 -27 96 -27 0z"/>
<path d="M7248 1445 c3 -20 0 -25 -15 -25 -25 0 -43 -19 -43 -45 0 -32 20 -45
65 -44 22 0 34 3 28 6 -9 3 -13 27 -13 69 0 47 -4 64 -14 64 -9 0 -12 -8 -8
-25z m2 -70 c0 -28 -4 -35 -20 -35 -16 0 -20 7 -20 35 0 28 4 35 20 35 16 0
20 -7 20 -35z"/>
<path d="M6766 1398 c-13 -19 -14 -25 -2 -43 11 -16 24 -20 72 -20 53 0 59 2
62 22 3 17 -3 24 -22 29 -14 3 -26 10 -26 15 0 14 38 11 43 -3 3 -8 6 -6 6 5
1 12 -7 17 -29 17 -17 0 -30 -5 -30 -12 0 -9 -3 -9 -12 0 -19 19 -45 14 -62
-10z m52 -5 c2 -8 -5 -13 -17 -13 -12 0 -21 6 -21 16 0 18 31 15 38 -3z m46
-23 c14 -5 26 -14 26 -20 0 -14 -37 -12 -43 3 -4 10 -7 10 -18 0 -18 -17 -49
-16 -49 1 0 8 12 17 28 19 15 2 28 5 29 6 1 0 13 -3 27 -9z"/>
<path d="M7036 1398 c-13 -19 -14 -25 -2 -43 7 -11 24 -20 36 -20 12 0 29 9
36 20 12 18 11 24 -2 43 -8 12 -24 22 -34 22 -10 0 -26 -10 -34 -22z m59 -7
c8 -26 -4 -51 -25 -51 -10 0 -21 7 -24 16 -10 25 3 54 24 54 10 0 21 -8 25
-19z"/>
<path d="M1600 566 c0 -91 4 -146 10 -146 6 0 10 53 10 139 0 83 -4 142 -10
146 -6 4 -10 -45 -10 -139z"/>
<path d="M2517 703 c-11 -11 -8 -283 3 -283 6 0 10 55 10 145 0 80 -1 145 -3
145 -2 0 -7 -3 -10 -7z"/>
<path d="M1858 633 c8 -3 12 -29 12 -78 0 -49 -4 -75 -12 -78 -7 -3 3 -5 22
-5 19 0 29 2 23 5 -7 2 -13 20 -13 39 0 32 2 34 35 34 33 0 35 -2 35 -34 0
-19 -6 -37 -12 -39 -7 -3 3 -5 22 -5 19 0 29 2 23 5 -9 3 -13 29 -13 78 0 49
4 75 13 78 6 3 -4 5 -23 5 -19 0 -29 -2 -22 -5 6 -2 12 -20 12 -39 0 -32 -2
-34 -35 -34 -33 0 -35 2 -35 34 0 19 6 37 13 39 6 3 -4 5 -23 5 -19 0 -29 -2
-22 -5z"/>
<path d="M2028 633 c8 -3 12 -29 12 -78 0 -49 -4 -75 -12 -78 -7 -3 3 -5 22
-5 19 0 29 2 23 5 -7 2 -13 20 -13 39 0 32 2 34 33 34 38 0 57 15 57 45 0 34
-20 45 -79 44 -31 0 -50 -3 -43 -6z m97 -38 c0 -27 -4 -30 -32 -33 -32 -3 -33
-2 -33 33 0 35 1 36 33 33 28 -3 32 -6 32 -33z"/>
<path d="M2178 633 c8 -3 12 -29 12 -78 0 -49 -4 -75 -12 -78 -7 -3 3 -5 22
-5 19 0 29 2 23 5 -19 7 -17 73 2 73 7 0 19 -8 24 -17 8 -14 10 -10 10 22 -1
22 -3 32 -6 23 -2 -10 -13 -18 -24 -18 -15 0 -19 7 -19 36 0 35 1 35 37 32 30
-2 39 -8 44 -28 6 -23 7 -22 8 8 l1 32 -67 -1 c-38 0 -62 -3 -55 -6z"/>
<path d="M3852 1773 c-2 -28 -6 -32 -34 -36 l-33 -4 32 -1 c28 -2 32 -6 36
-34 l4 -33 1 32 c2 28 6 32 35 36 l32 4 -32 1 c-28 2 -32 6 -36 35 l-4 32 -1
-32z"/>
<path d="M3793 1043 c9 -2 25 -2 35 0 9 3 1 5 -18 5 -19 0 -27 -2 -17 -5z"/>
</g>
</svg>
