<?xml version="1.0" standalone="no"?>
<!DOCTYPE svg PUBLIC "-//W3C//DTD SVG 20010904//EN"
 "http://www.w3.org/TR/2001/REC-SVG-20010904/DTD/svg10.dtd">
<svg version="1.0" xmlns="http://www.w3.org/2000/svg"
 width="646.000000pt" height="439.000000pt" viewBox="0 0 646.000000 439.000000"
 preserveAspectRatio="xMidYMid meet">

<g transform="translate(0.000000,439.000000) scale(0.100000,-0.100000)"
fill="#000000" stroke="none">
<path d="M1214 4381 c-79 -20 -149 -91 -160 -163 -4 -21 -8 -38 -9 -38 -1 0
-21 7 -44 15 -36 12 -41 12 -41 0 0 -12 -14 -15 -60 -15 l-60 0 0 -986 0 -986
-22 6 c-67 18 -68 18 -68 2 0 -14 -39 -16 -372 -19 l-373 -2 373 -3 c318 -2
372 -4 372 -17 0 -12 5 -12 41 0 23 8 43 15 45 15 2 0 4 -443 4 -985 l0 -985
60 0 c47 0 60 -3 60 -15 0 -18 -2 -18 48 -1 l40 14 6 -37 c8 -50 42 -98 95
-136 37 -26 51 -30 111 -30 60 0 74 4 111 30 54 38 87 86 95 137 l7 38 158 0
c135 0 159 -2 159 -15 0 -18 -2 -18 49 0 l41 14 0 -104 0 -105 315 0 315 0 0
105 0 105 55 0 c44 0 55 -3 55 -16 0 -16 1 -16 68 2 22 6 22 5 22 -95 l0 -101
315 0 315 0 0 105 0 105 210 0 210 0 0 265 c0 229 2 265 15 265 18 0 18 -2 1
48 l-14 40 44 11 c76 19 140 89 158 174 l6 27 155 0 c131 0 155 -2 155 -15 0
-18 -2 -18 48 -1 l41 15 3 -102 3 -102 315 0 315 0 3 103 3 102 309 0 310 0 0
265 c0 237 2 265 16 265 16 0 16 1 -2 67 -6 22 -4 22 92 25 l99 3 3 258 2 257
259 0 c210 0 260 -3 263 -13 2 -11 12 -11 53 3 l50 18 -28 11 c-57 22 -77 24
-77 7 0 -14 -28 -16 -260 -16 l-260 0 0 260 0 260 -105 0 -104 0 14 41 c18 51
18 49 0 49 -13 0 -15 37 -15 270 l0 270 -310 0 -310 0 0 100 0 100 -320 0
-320 0 0 -101 c0 -92 -2 -101 -17 -94 -38 14 -73 17 -73 6 0 -8 -47 -11 -155
-11 l-155 0 -11 44 c-19 78 -106 156 -174 156 -30 0 -29 -3 -10 49 13 37 13
43 0 47 -13 5 -15 47 -15 270 l0 264 -210 0 -210 0 0 105 0 105 -312 -2 -313
-3 -3 -102 -3 -102 -41 15 c-50 17 -48 17 -48 -1 0 -12 -13 -15 -55 -15 l-55
0 0 105 0 105 -315 0 -315 0 0 -105 c0 -58 -2 -105 -4 -105 -2 0 -22 7 -45 15
-36 12 -41 12 -41 0 0 -13 -26 -15 -159 -15 l-158 0 -7 38 c-17 106 -145 189
-252 163z m136 -26 c136 -70 148 -262 22 -350 -38 -26 -52 -30 -112 -30 -60 0
-74 4 -112 30 -143 100 -103 325 64 365 39 10 103 3 138 -15z m1150 -180 l0
-205 -305 0 -305 0 0 205 0 205 305 0 305 0 0 -205z m830 0 l0 -205 -305 0
-305 0 0 205 0 205 305 0 305 0 0 -205z m-2370 -20 c0 -18 -2 -18 49 0 40 14
41 14 41 -8 1 -70 79 -159 156 -178 35 -9 44 -15 39 -28 -17 -43 -17 -71 -1
-71 13 0 16 -11 16 -55 l0 -55 -105 0 -105 0 0 -110 0 -110 105 0 104 0 1
-359 c0 -324 -2 -361 -16 -369 -14 -8 -15 -14 -5 -42 15 -45 14 -50 -9 -50
-70 0 -180 -110 -180 -181 0 -17 -4 -20 -22 -15 -62 17 -68 18 -68 7 0 -7 -21
-11 -55 -11 l-55 0 0 825 0 825 55 0 c42 0 55 -3 55 -15z m830 -1 c0 -12 6
-15 23 -10 74 21 67 30 67 -83 l0 -101 315 0 315 0 0 105 0 105 55 0 c44 0 55
-3 55 -16 0 -12 6 -15 23 -10 74 21 67 30 67 -83 l0 -101 315 0 315 0 0 105 0
105 205 0 205 0 0 -260 c0 -224 -2 -260 -15 -260 -19 0 -19 -7 0 -59 14 -41
14 -41 -11 -41 -33 0 -93 -31 -126 -67 -32 -33 -59 -103 -57 -147 1 -26 2 -27
5 -6 22 141 91 210 211 210 213 -1 277 -283 85 -377 -104 -51 -215 -15 -266
88 -14 29 -26 47 -26 41 0 -7 9 -31 20 -53 25 -48 90 -97 141 -105 l37 -6 -14
-40 c-17 -50 -17 -48 1 -48 13 0 15 -36 15 -260 l0 -260 -205 0 -205 0 0 100
0 100 -315 0 -315 0 0 -101 c0 -92 -2 -101 -17 -94 -38 14 -73 17 -73 6 0 -7
-21 -11 -55 -11 l-55 0 0 100 0 100 -315 0 -315 0 0 -101 c0 -92 -2 -101 -17
-94 -38 14 -73 17 -73 6 0 -8 -48 -11 -160 -11 -156 0 -160 0 -160 21 0 37
-51 117 -92 144 -22 15 -56 29 -75 32 -29 5 -34 9 -29 27 17 60 18 66 7 66 -8
0 -11 77 -11 261 l0 261 23 -7 c56 -17 67 -17 67 -1 0 14 27 16 260 16 l260 0
0 -22 c1 -34 34 -100 66 -130 89 -84 220 -75 306 20 86 96 55 257 -62 320 -61
32 -160 29 -213 -8 -42 -29 -84 -91 -93 -137 l-6 -33 -258 0 c-222 0 -259 2
-264 15 -5 14 -9 14 -42 0 -20 -8 -38 -15 -40 -15 -2 0 -4 43 -4 95 l0 95 100
0 100 0 0 110 0 110 -100 0 -100 0 0 55 c0 34 4 55 11 55 11 0 8 35 -6 71 -5
13 4 19 39 28 77 19 155 108 156 179 0 22 1 22 160 22 141 0 160 -2 160 -16z
m-330 -504 l0 -100 -200 0 -200 0 0 100 0 100 200 0 200 0 0 -100z m742 -139
c63 -44 83 -84 83 -172 0 -71 -2 -80 -31 -116 -64 -80 -169 -105 -255 -60
-147 78 -143 282 6 362 45 24 152 17 197 -14z m2798 -171 l0 -200 -310 0 -310
0 0 200 0 200 310 0 310 0 0 -200z m-720 -16 c0 -16 1 -16 68 2 22 6 22 5 22
-95 l0 -101 320 0 320 0 0 105 0 105 305 0 305 0 0 -265 c0 -229 -2 -265 -15
-265 -18 0 -18 2 0 -49 l14 -41 -105 0 -104 0 2 -522 3 -523 102 -3 102 -3
-15 -41 c-17 -50 -17 -48 1 -48 13 0 15 -36 15 -260 l0 -260 -305 0 -304 0 -3
103 -3 102 -315 0 -315 0 -3 -102 -3 -102 -41 15 c-50 17 -48 17 -48 -1 0 -13
-24 -15 -155 -15 l-155 0 -6 28 c-18 84 -82 154 -158 173 l-44 11 14 40 c17
50 17 48 -1 48 -13 0 -15 36 -15 265 l0 265 -210 0 -210 0 0 105 0 105 -315 0
-315 0 0 -101 c0 -113 7 -104 -67 -83 -17 5 -23 2 -23 -10 0 -13 -11 -16 -55
-16 l-55 0 0 105 0 105 -315 0 -315 0 0 -105 0 -104 -41 14 c-51 18 -49 18
-49 0 0 -13 -24 -15 -160 -15 -159 0 -160 0 -160 23 -1 37 -35 100 -73 134
-79 69 -195 69 -274 0 -38 -33 -72 -97 -73 -134 0 -22 -1 -22 -41 -8 -51 18
-49 18 -49 0 0 -12 -13 -15 -55 -15 l-55 0 0 305 0 305 55 0 c34 0 55 -4 55
-11 0 -7 9 -9 22 -5 69 19 68 19 68 -3 0 -29 26 -79 59 -114 100 -109 272 -81
342 55 10 21 19 46 19 58 0 19 6 20 160 20 111 0 160 -3 160 -11 0 -7 9 -9 23
-5 74 21 67 30 67 -83 l0 -101 315 0 315 0 0 100 0 100 55 0 c34 0 55 -4 55
-11 0 -11 35 -8 73 6 15 7 17 -2 17 -94 l0 -101 315 0 315 0 0 100 0 100 208
2 207 3 3 268 c2 228 4 267 17 267 18 0 18 -2 1 48 l-14 40 36 7 c78 14 149
88 167 173 l7 32 154 0 c135 0 154 -2 154 -16z m-2932 -633 c72 -37 112 -102
112 -181 0 -113 -87 -200 -200 -200 -214 0 -277 282 -85 383 42 23 127 21 173
-2z m1152 -181 l0 -200 -305 0 -305 0 0 200 0 200 305 0 305 0 0 -200z m830 0
l0 -200 -305 0 -305 0 0 200 0 200 305 0 305 0 0 -200z m2500 -315 l0 -515
-205 0 -205 0 0 515 0 515 205 0 205 0 0 -515z m-4456 -142 c88 -61 113 -194
53 -280 -80 -116 -254 -116 -334 0 -73 105 -18 268 104 307 50 17 133 4 177
-27z m1126 -168 l0 -205 -305 0 -305 0 0 205 0 205 305 0 305 0 0 -205z m830
0 l0 -205 -305 0 -305 0 0 205 0 205 305 0 305 0 0 -205z m-2370 -20 c0 -12 5
-12 41 0 23 8 43 15 44 15 1 0 5 -17 9 -37 11 -74 83 -146 160 -163 32 -7 33
-10 21 -67 -6 -27 -4 -33 9 -33 13 0 16 -11 16 -50 l0 -50 -105 0 -105 0 0
-110 0 -110 105 0 104 0 1 -365 c0 -331 -1 -365 -16 -365 -13 0 -15 -6 -9 -32
12 -58 11 -61 -20 -68 -79 -17 -150 -87 -161 -162 -4 -21 -8 -38 -9 -38 -1 0
-21 7 -44 15 -36 12 -41 12 -41 0 0 -11 -14 -15 -55 -15 l-55 0 0 825 0 825
55 0 c41 0 55 -4 55 -15z m830 1 c0 -12 7 -12 45 0 l45 13 0 -104 0 -105 315
0 315 0 0 105 0 105 55 0 c42 0 55 -3 55 -15 0 -18 -2 -18 49 0 l41 14 0 -104
0 -105 315 0 315 0 0 105 0 105 205 0 205 0 0 -260 c0 -224 -2 -260 -15 -260
-18 0 -18 2 -1 -48 l15 -41 -32 -6 c-118 -25 -199 -150 -168 -260 21 -77 82
-137 160 -157 l39 -10 -14 -40 c-17 -50 -17 -48 1 -48 13 0 15 -36 15 -260 l0
-260 -205 0 -205 0 0 105 0 105 -315 0 -315 0 0 -105 0 -104 -41 14 c-51 18
-49 18 -49 0 0 -12 -13 -15 -55 -15 l-55 0 0 105 0 105 -315 0 -315 0 0 -105
0 -104 -41 14 c-51 18 -49 18 -49 0 0 -13 -24 -15 -159 -15 l-158 0 -7 38
c-11 74 -101 162 -165 162 -28 0 -32 11 -18 55 9 30 9 39 -1 43 -9 3 -12 68
-12 263 l0 259 36 -15 c46 -19 54 -19 54 0 0 13 35 15 259 15 l258 0 7 -38
c17 -110 142 -189 255 -162 169 40 219 257 85 368 -69 57 -152 64 -236 21 -48
-24 -96 -90 -104 -141 l-7 -38 -258 0 c-224 0 -259 2 -259 15 0 19 -8 19 -54
0 l-36 -15 0 100 0 100 100 0 100 0 0 110 0 110 -100 0 -100 0 0 49 c0 30 5
51 12 53 10 4 10 13 1 43 -14 45 -10 55 21 55 33 0 110 53 135 93 12 20 25 52
28 72 l6 35 158 0 c130 0 159 -3 159 -14z m-330 -496 l0 -100 -200 0 -200 0 0
100 0 100 200 0 200 0 0 -100z m691 -121 c88 -30 139 -101 139 -194 0 -160
-161 -252 -302 -173 -67 38 -104 114 -96 199 12 122 143 206 259 168z m1662 0
c98 -27 161 -138 137 -241 -36 -148 -212 -206 -326 -106 -90 79 -96 203 -16
290 56 59 126 79 205 57z m1187 -194 l0 -205 -310 0 -310 0 0 205 0 205 310 0
310 0 0 -205z m-3631 -663 c127 -77 119 -277 -14 -346 -54 -28 -136 -28 -190
0 -128 66 -141 263 -24 341 75 49 152 51 228 5z m1131 -167 l0 -205 -305 0
-305 0 0 205 0 205 305 0 305 0 0 -205z m830 0 l0 -205 -305 0 -305 0 0 205 0
205 305 0 305 0 0 -205z"/>
<path d="M1200 4228 l54 -58 -49 -52 -50 -53 53 50 52 49 53 -49 52 -50 -50
53 -49 52 54 58 55 57 -57 -55 -58 -54 -57 54 -58 55 55 -57z"/>
<path d="M2150 4215 c0 -4 9 -20 21 -36 l20 -29 -21 -28 -22 -27 47 -3 c54 -4
75 2 75 20 0 9 -3 9 -12 0 -12 -12 -88 -17 -88 -5 0 3 8 15 17 25 16 18 16 21
1 49 l-17 29 37 0 c21 0 44 -6 51 -12 11 -11 13 -10 9 2 -3 11 -21 16 -61 18
-31 2 -57 0 -57 -3z"/>
<path d="M3054 4218 c-5 -8 -2 -9 9 -5 20 7 23 -13 5 -31 -9 -9 -7 -12 13 -11
13 0 18 3 12 6 -9 3 -10 10 -3 22 15 28 -19 46 -36 19z"/>
<path d="M2993 4167 c-3 -6 -1 -7 5 -3 7 4 12 1 12 -8 0 -9 -7 -16 -15 -16
-29 0 -15 -17 15 -18 17 0 30 4 30 9 0 6 -5 7 -11 3 -7 -4 -9 1 -7 12 2 11 10
18 16 17 7 -2 12 1 12 6 0 12 -49 11 -57 -2z"/>
<path d="M2005 3730 c-3 -5 -1 -10 4 -10 15 0 14 -57 -1 -63 -7 -3 -4 -6 7 -6
18 -1 20 4 17 44 -4 43 -14 56 -27 35z"/>
<path d="M2061 3723 c0 -11 3 -13 6 -5 2 6 9 12 14 12 15 0 10 -36 -6 -50 -22
-18 -18 -30 10 -30 14 0 25 4 25 9 0 5 -10 7 -22 4 l-23 -6 24 26 c27 29 22
57 -9 57 -13 0 -20 -6 -19 -17z"/>
<path d="M2132 3728 c-31 -31 2 -93 38 -71 12 8 21 8 28 1 20 -20 42 0 42 37
0 39 -20 55 -44 36 -10 -8 -16 -9 -21 -1 -8 13 -28 13 -43 -2z m33 -33 c0 -16
-6 -30 -12 -32 -9 -3 -13 7 -13 32 0 25 4 35 13 33 6 -3 12 -17 12 -33z m60 0
c0 -16 -6 -30 -12 -32 -9 -3 -13 7 -13 32 0 25 4 35 13 33 6 -3 12 -17 12 -33z"/>
<path d="M2265 3695 c0 -27 5 -45 12 -45 6 0 9 9 6 20 -4 16 0 20 17 20 17 0
21 -4 17 -20 -4 -17 0 -20 34 -20 21 0 39 4 39 10 0 5 -8 7 -17 3 -17 -6 -17
-5 0 14 23 26 22 33 -8 33 -14 0 -25 -4 -25 -10 0 -5 7 -7 16 -3 14 5 15 3 5
-15 -19 -35 -33 -26 -29 18 2 26 -1 40 -8 40 -7 0 -10 -8 -7 -20 4 -16 0 -20
-17 -20 -17 0 -21 4 -17 20 3 11 0 20 -6 20 -7 0 -12 -18 -12 -45z"/>
<path d="M3752 3403 l-2 -52 -52 -4 -53 -3 53 -2 52 -2 2 -52 2 -53 3 52 4 52
52 4 52 3 -52 2 -52 2 -4 53 -3 52 -2 -52z"/>
<path d="M1221 3676 c-14 -16 -4 -46 15 -46 8 0 14 -5 14 -11 0 -6 -7 -9 -15
-5 -8 3 -15 1 -15 -4 0 -14 24 -12 38 2 8 8 15 8 26 -2 25 -20 46 -5 46 35 0
39 -20 55 -44 36 -10 -8 -16 -9 -21 -1 -9 14 -30 13 -44 -4z m29 -16 c0 -11
-4 -20 -10 -20 -5 0 -10 9 -10 20 0 11 5 20 10 20 6 0 10 -9 10 -20z m65 -15
c0 -16 -6 -30 -12 -32 -9 -3 -13 7 -13 32 0 25 4 35 13 33 6 -3 12 -17 12 -33z"/>
<path d="M2000 3380 c-11 -11 -20 -26 -19 -32 0 -7 5 -3 11 10 17 34 57 40 80
12 10 -12 18 -30 18 -40 0 -41 72 -59 97 -24 22 29 15 35 -11 9 -33 -33 -67
-22 -79 26 -14 58 -60 76 -97 39z"/>
<path d="M4699 3504 c-9 -11 -15 -63 -20 -153 -4 -75 -7 -138 -8 -140 0 -2 -8
-1 -16 3 -8 3 -15 1 -15 -4 0 -6 7 -10 15 -10 25 0 35 44 36 153 1 110 9 153
27 150 7 -2 12 2 12 7 0 15 -16 12 -31 -6z"/>
<path d="M1205 2563 l49 -53 -49 -52 -50 -53 53 50 52 49 53 -49 52 -50 -50
53 -49 52 49 53 50 52 -52 -50 -53 -49 -52 49 -53 50 50 -52z"/>
<path d="M2150 2555 c0 -4 9 -20 21 -36 l20 -29 -21 -28 -22 -27 47 -3 c54 -4
75 2 75 20 0 9 -3 9 -12 0 -12 -12 -88 -17 -88 -5 0 3 8 15 17 25 16 18 16 21
1 49 l-17 29 37 0 c21 0 44 -6 51 -12 11 -11 13 -10 9 2 -3 11 -21 16 -61 18
-31 2 -57 0 -57 -3z"/>
<path d="M3054 2558 c-5 -8 -2 -9 9 -5 20 7 23 -13 5 -31 -9 -9 -7 -12 13 -11
13 0 18 3 12 6 -9 3 -10 10 -3 22 15 28 -19 46 -36 19z"/>
<path d="M2993 2507 c-3 -6 -1 -7 5 -3 7 4 12 1 12 -8 0 -9 -7 -16 -15 -16
-29 0 -15 -17 15 -18 17 0 30 4 30 9 0 6 -5 7 -11 3 -7 -4 -9 1 -7 12 2 11 10
18 16 17 7 -2 12 1 12 6 0 12 -49 11 -57 -2z"/>
<path d="M5613 2277 c-24 -11 -43 -24 -43 -27 0 -8 91 -52 96 -47 2 2 -14 12
-36 22 -22 10 -40 21 -40 25 0 3 19 16 43 27 23 12 38 22 32 22 -5 0 -29 -10
-52 -22z"/>
<path d="M5615 2173 l49 -26 -47 -23 c-50 -26 -63 -40 -22 -24 36 14 85 40 85
45 0 6 -97 55 -107 55 -4 -1 14 -13 42 -27z"/>
<path d="M1205 1942 l49 -52 -54 -55 c-30 -30 -50 -55 -44 -55 5 0 32 23 59
50 l49 50 56 -52 55 -53 -53 55 -52 56 45 44 c25 24 45 49 45 54 0 6 -22 -12
-50 -39 l-50 -49 -52 49 -53 50 50 -53z"/>
<path d="M2150 1925 c0 -4 9 -20 21 -36 l20 -29 -21 -28 -22 -27 47 -3 c54 -4
75 2 75 20 0 9 -3 9 -12 0 -12 -12 -88 -17 -88 -5 0 3 8 15 17 25 16 18 16 21
1 49 l-17 29 37 0 c21 0 44 -6 51 -12 11 -11 13 -10 9 2 -3 11 -21 16 -61 18
-31 2 -57 0 -57 -3z"/>
<path d="M3054 1928 c-5 -8 -2 -9 9 -5 20 7 23 -13 5 -31 -9 -9 -7 -12 13 -11
13 0 18 3 12 6 -9 3 -10 10 -3 22 15 28 -19 46 -36 19z"/>
<path d="M2993 1877 c-3 -6 -1 -7 5 -3 7 4 12 1 12 -8 0 -9 -7 -16 -15 -16
-29 0 -15 -17 15 -18 17 0 30 4 30 9 0 6 -5 7 -11 3 -7 -4 -9 1 -7 12 2 11 10
18 16 17 7 -2 12 1 12 6 0 12 -49 11 -57 -2z"/>
<path d="M2001 1443 c0 -11 3 -13 6 -5 2 6 9 12 14 12 15 0 10 -36 -6 -50 -22
-18 -18 -30 10 -30 14 0 25 4 25 9 0 5 -10 7 -22 4 l-23 -6 24 26 c27 29 22
57 -9 57 -13 0 -20 -6 -19 -17z"/>
<path d="M2061 1443 c0 -11 3 -13 6 -5 2 6 9 12 14 12 15 0 10 -36 -6 -50 -22
-18 -18 -30 10 -30 14 0 25 4 25 9 0 5 -10 7 -22 4 l-23 -6 24 26 c27 29 22
57 -9 57 -13 0 -20 -6 -19 -17z"/>
<path d="M2132 1448 c-31 -31 2 -93 38 -71 12 8 21 8 28 1 20 -20 42 0 42 37
0 39 -20 55 -44 36 -10 -8 -16 -9 -21 -1 -8 13 -28 13 -43 -2z m33 -33 c0 -16
-6 -30 -12 -32 -9 -3 -13 7 -13 32 0 25 4 35 13 33 6 -3 12 -17 12 -33z m60 0
c0 -16 -6 -30 -12 -32 -9 -3 -13 7 -13 32 0 25 4 35 13 33 6 -3 12 -17 12 -33z"/>
<path d="M2265 1415 c0 -27 5 -45 12 -45 6 0 9 9 6 20 -4 16 0 20 17 20 17 0
21 -4 17 -20 -4 -17 0 -20 34 -20 21 0 39 4 39 10 0 5 -8 7 -17 3 -17 -6 -17
-5 0 14 23 26 22 33 -8 33 -14 0 -25 -4 -25 -10 0 -5 7 -7 16 -3 14 5 15 3 5
-15 -19 -35 -33 -26 -29 18 2 26 -1 40 -8 40 -7 0 -10 -8 -7 -20 4 -16 0 -20
-17 -20 -17 0 -21 4 -17 20 3 11 0 20 -6 20 -7 0 -12 -18 -12 -45z"/>
<path d="M1221 1386 c-14 -16 -4 -46 15 -46 8 0 14 -5 14 -11 0 -6 -7 -9 -15
-5 -8 3 -15 1 -15 -4 0 -14 24 -12 38 2 8 8 15 8 26 -2 25 -20 46 -5 46 35 0
39 -20 55 -44 36 -10 -8 -16 -9 -21 -1 -9 14 -30 13 -44 -4z m29 -16 c0 -11
-4 -20 -10 -20 -5 0 -10 9 -10 20 0 11 5 20 10 20 6 0 10 -9 10 -20z m65 -15
c0 -16 -6 -30 -12 -32 -9 -3 -13 7 -13 32 0 25 4 35 13 33 6 -3 12 -17 12 -33z"/>
<path d="M2003 1098 c-5 -7 -13 -20 -17 -28 -4 -8 1 -5 10 8 33 45 94 21 94
-37 0 -22 27 -41 58 -41 22 0 52 30 52 51 0 8 -6 3 -13 -11 -14 -29 -65 -35
-77 -10 -33 71 -36 75 -66 78 -17 2 -35 -3 -41 -10z"/>
<path d="M3752 1113 l-2 -52 -52 -4 -53 -3 53 -2 52 -2 2 -52 2 -53 3 52 4 52
52 4 52 3 -52 2 -52 2 -4 53 -3 52 -2 -52z"/>
<path d="M4715 1220 c3 -5 8 -10 11 -10 2 0 4 5 4 10 0 6 -5 10 -11 10 -5 0
-7 -4 -4 -10z"/>
<path d="M4686 1188 c-3 -13 -6 -66 -6 -118 0 -109 -6 -140 -27 -140 -8 0 -11
-5 -7 -11 4 -7 12 -6 22 5 13 13 18 46 23 149 3 72 5 133 4 135 -1 1 -5 -8 -9
-20z"/>
<path d="M1200 275 l54 -55 -49 -52 -50 -53 53 50 52 49 50 -49 c28 -27 50
-45 50 -39 0 5 -20 30 -45 54 l-45 44 52 56 53 55 -55 -53 -56 -52 -49 50
c-27 27 -54 50 -59 50 -6 0 14 -25 44 -55z"/>
<path d="M2150 265 c0 -4 9 -20 21 -36 l20 -29 -21 -28 -22 -27 47 -3 c54 -4
75 2 75 20 0 9 -3 9 -12 0 -12 -12 -88 -17 -88 -5 0 3 8 15 17 25 16 18 16 21
1 49 l-17 29 37 0 c21 0 44 -6 51 -12 11 -11 13 -10 9 2 -3 11 -21 16 -61 18
-31 2 -57 0 -57 -3z"/>
<path d="M3054 268 c-5 -8 -2 -9 9 -5 20 7 23 -13 5 -31 -9 -9 -7 -12 13 -11
13 0 18 3 12 6 -9 3 -10 10 -3 22 15 28 -19 46 -36 19z"/>
<path d="M2993 217 c-3 -6 -1 -7 5 -3 7 4 12 1 12 -8 0 -9 -7 -16 -15 -16 -29
0 -15 -17 15 -18 17 0 30 4 30 9 0 6 -5 7 -11 3 -7 -4 -9 1 -7 12 2 11 10 18
16 17 7 -2 12 1 12 6 0 12 -49 11 -57 -2z"/>
<path d="M82 2375 c-16 -35 -15 -67 3 -91 13 -17 13 -15 3 18 -9 29 -8 44 1
64 6 15 10 28 8 30 -2 2 -9 -7 -15 -21z"/>
<path d="M118 2367 c-7 -19 6 -60 20 -63 7 -1 8 0 2 3 -12 6 -13 40 -1 45 5 2
3 8 -4 15 -10 9 -14 9 -17 0z"/>
<path d="M186 2358 c3 -15 1 -42 -5 -60 -10 -30 -9 -31 4 -14 17 23 19 64 5
86 -8 11 -9 8 -4 -12z"/>
<path d="M18 2330 c2 -16 8 -30 13 -30 5 0 6 6 3 14 -3 7 2 21 11 30 15 15 15
16 -8 16 -21 0 -23 -4 -19 -30z"/>
</g>
</svg>
